<svg width="20" height="20" viewBox="0 0 20 20" fill="none" xmlns="http://www.w3.org/2000/svg">
<path d="M17.5013 13.3332H5.83464C5.61362 13.3332 5.40166 13.2454 5.24538 13.0891C5.0891 12.9328 5.0013 12.7209 5.0013 12.4998C5.0013 12.2788 5.0891 12.0669 5.24538 11.9106C5.40166 11.7543 5.61362 11.6665 5.83464 11.6665H14.5346C15.0918 11.6665 15.6331 11.4804 16.0724 11.1377C16.5118 10.795 16.824 10.3153 16.9596 9.77484L18.3346 4.3665C18.3658 4.24351 18.3686 4.11501 18.3426 3.99081C18.3166 3.86661 18.2626 3.74999 18.1846 3.64984C18.1036 3.54711 17.9995 3.46492 17.8808 3.4099C17.7621 3.35489 17.6321 3.3286 17.5013 3.33317H5.63464C5.46271 2.84688 5.14458 2.42567 4.72386 2.12729C4.30314 1.8289 3.80042 1.66795 3.28464 1.6665H2.5013C2.28029 1.6665 2.06833 1.7543 1.91205 1.91058C1.75577 2.06686 1.66797 2.27882 1.66797 2.49984C1.66797 2.72085 1.75577 2.93281 1.91205 3.08909C2.06833 3.24537 2.28029 3.33317 2.5013 3.33317H3.28464C3.475 3.32762 3.66152 3.38745 3.81314 3.50268C3.96476 3.61792 4.07234 3.78161 4.11797 3.9665L4.16797 4.3665L5.60964 9.99984C4.94659 10.0297 4.32256 10.3217 3.87482 10.8116C3.42708 11.3016 3.1923 11.9493 3.22214 12.6123C3.25197 13.2754 3.54398 13.8994 4.03392 14.3472C4.52386 14.7949 5.17159 15.0297 5.83464 14.9998H5.98464C5.84758 15.3774 5.80354 15.7825 5.85624 16.1808C5.90895 16.579 6.05684 16.9587 6.2874 17.2876C6.51796 17.6166 6.8244 17.8852 7.18076 18.0706C7.53713 18.256 7.93292 18.3528 8.33464 18.3528C8.73635 18.3528 9.13214 18.256 9.48851 18.0706C9.84487 17.8852 10.1513 17.6166 10.3819 17.2876C10.6124 16.9587 10.7603 16.579 10.813 16.1808C10.8657 15.7825 10.8217 15.3774 10.6846 14.9998H12.6513C12.5142 15.3774 12.4702 15.7825 12.5229 16.1808C12.5756 16.579 12.7235 16.9587 12.9541 17.2876C13.1846 17.6166 13.4911 17.8852 13.8474 18.0706C14.2038 18.256 14.5996 18.3528 15.0013 18.3528C15.403 18.3528 15.7988 18.256 16.1552 18.0706C16.5115 17.8852 16.818 17.6166 17.0485 17.2876C17.2791 16.9587 17.427 16.579 17.4797 16.1808C17.5324 15.7825 17.4884 15.3774 17.3513 14.9998H17.5013C17.7223 14.9998 17.9343 14.912 18.0906 14.7558C18.2468 14.5995 18.3346 14.3875 18.3346 14.1665C18.3346 13.9455 18.2468 13.7335 18.0906 13.5772C17.9343 13.421 17.7223 13.3332 17.5013 13.3332ZM16.4346 4.99984L15.343 9.3665C15.2973 9.5514 15.1898 9.71509 15.0381 9.83033C14.8865 9.94556 14.7 10.0054 14.5096 9.99984H7.31797L6.06797 4.99984H16.4346ZM8.33464 16.6665C8.16982 16.6665 8.0087 16.6176 7.87166 16.5261C7.73462 16.4345 7.62781 16.3043 7.56474 16.1521C7.50166 15.9998 7.48516 15.8322 7.51731 15.6706C7.54947 15.5089 7.62884 15.3605 7.74538 15.2439C7.86192 15.1274 8.01041 15.048 8.17206 15.0159C8.33371 14.9837 8.50127 15.0002 8.65354 15.0633C8.80581 15.1263 8.93596 15.2332 9.02753 15.3702C9.11909 15.5072 9.16797 15.6684 9.16797 15.8332C9.16797 16.0542 9.08017 16.2661 8.92389 16.4224C8.76761 16.5787 8.55565 16.6665 8.33464 16.6665ZM15.0013 16.6665C14.8365 16.6665 14.6754 16.6176 14.5383 16.5261C14.4013 16.4345 14.2945 16.3043 14.2314 16.1521C14.1683 15.9998 14.1518 15.8322 14.184 15.6706C14.2161 15.5089 14.2955 15.3605 14.412 15.2439C14.5286 15.1274 14.6771 15.048 14.8387 15.0159C15.0004 14.9837 15.1679 15.0002 15.3202 15.0633C15.4725 15.1263 15.6026 15.2332 15.6942 15.3702C15.7858 15.5072 15.8346 15.6684 15.8346 15.8332C15.8346 16.0542 15.7468 16.2661 15.5906 16.4224C15.4343 16.5787 15.2223 16.6665 15.0013 16.6665Z" fill="#FF7200"/>
</svg>
