<svg width="26" height="26" viewBox="0 0 26 26" fill="none" xmlns="http://www.w3.org/2000/svg">
<path d="M20.582 7.58317H17.332V6.49984C17.332 5.35057 16.8755 4.24837 16.0628 3.43571C15.2502 2.62305 14.148 2.1665 12.9987 2.1665C11.8494 2.1665 10.7472 2.62305 9.93457 3.43571C9.12191 4.24837 8.66536 5.35057 8.66536 6.49984V7.58317H5.41536C5.12805 7.58317 4.8525 7.69731 4.64933 7.90047C4.44617 8.10364 4.33203 8.37919 4.33203 8.6665V20.5832C4.33203 21.4451 4.67444 22.2718 5.28393 22.8813C5.89343 23.4908 6.72008 23.8332 7.58203 23.8332H18.4154C19.2773 23.8332 20.104 23.4908 20.7135 22.8813C21.323 22.2718 21.6654 21.4451 21.6654 20.5832V8.6665C21.6654 8.37919 21.5512 8.10364 21.3481 7.90047C21.1449 7.69731 20.8693 7.58317 20.582 7.58317ZM10.832 6.49984C10.832 5.9252 11.0603 5.3741 11.4666 4.96777C11.873 4.56144 12.4241 4.33317 12.9987 4.33317C13.5733 4.33317 14.1244 4.56144 14.5308 4.96777C14.9371 5.3741 15.1654 5.9252 15.1654 6.49984V7.58317H10.832V6.49984ZM19.4987 20.5832C19.4987 20.8705 19.3846 21.146 19.1814 21.3492C18.9782 21.5524 18.7027 21.6665 18.4154 21.6665H7.58203C7.29471 21.6665 7.01916 21.5524 6.816 21.3492C6.61283 21.146 6.4987 20.8705 6.4987 20.5832V9.74984H8.66536V10.8332C8.66536 11.1205 8.7795 11.396 8.98267 11.5992C9.18583 11.8024 9.46138 11.9165 9.7487 11.9165C10.036 11.9165 10.3116 11.8024 10.5147 11.5992C10.7179 11.396 10.832 11.1205 10.832 10.8332V9.74984H15.1654V10.8332C15.1654 11.1205 15.2795 11.396 15.4827 11.5992C15.6858 11.8024 15.9614 11.9165 16.2487 11.9165C16.536 11.9165 16.8116 11.8024 17.0147 11.5992C17.2179 11.396 17.332 11.1205 17.332 10.8332V9.74984H19.4987V20.5832Z" fill="white"/>
</svg>
