<svg width="21" height="20" viewBox="0 0 21 20" fill="none" xmlns="http://www.w3.org/2000/svg">
<path d="M16.9667 4.16672C16.0833 3.28106 14.9124 2.74051 13.6653 2.6427C12.4183 2.54489 11.1773 2.89628 10.1667 3.63339C9.10641 2.84475 7.78669 2.48715 6.47329 2.63259C5.1599 2.77803 3.95039 3.4157 3.08834 4.41721C2.22628 5.41872 1.77571 6.70966 1.82736 8.03007C1.87901 9.35048 2.42904 10.6023 3.36669 11.5334L8.54169 16.7167C8.97504 17.1432 9.55868 17.3822 10.1667 17.3822C10.7747 17.3822 11.3583 17.1432 11.7917 16.7167L16.9667 11.5334C17.9397 10.5544 18.4858 9.23028 18.4858 7.85006C18.4858 6.46983 17.9397 5.14567 16.9667 4.16672ZM15.7917 10.3834L10.6167 15.5584C10.5578 15.6179 10.4877 15.6651 10.4105 15.6973C10.3332 15.7295 10.2504 15.7461 10.1667 15.7461C10.083 15.7461 10.0001 15.7295 9.92291 15.6973C9.84567 15.6651 9.77558 15.6179 9.71669 15.5584L4.54169 10.3584C3.88816 9.69034 3.5222 8.79294 3.5222 7.85839C3.5222 6.92384 3.88816 6.02644 4.54169 5.35839C5.20766 4.70088 6.10584 4.3322 7.04169 4.3322C7.97755 4.3322 8.87573 4.70088 9.54169 5.35839C9.61916 5.4365 9.71133 5.49849 9.81288 5.5408C9.91443 5.58311 10.0233 5.60489 10.1334 5.60489C10.2434 5.60489 10.3523 5.58311 10.4538 5.5408C10.5554 5.49849 10.6476 5.4365 10.725 5.35839C11.391 4.70088 12.2892 4.3322 13.225 4.3322C14.1609 4.3322 15.0591 4.70088 15.725 5.35839C16.3875 6.01768 16.7655 6.91022 16.778 7.84479C16.7904 8.77937 16.4364 9.68167 15.7917 10.3584V10.3834Z" fill="#757575"/>
</svg>
