<svg width="17" height="16" viewBox="0 0 17 16" fill="none" xmlns="http://www.w3.org/2000/svg">
<path d="M15.6335 11.6668L10.2335 2.33345C9.70017 1.40011 8.4335 1.06678 7.50017 1.60011C7.16684 1.80011 6.90017 2.06678 6.76684 2.33345L1.36684 11.6668C0.833504 12.6001 1.16684 13.8668 2.10017 14.4001C2.4335 14.6001 2.76684 14.6668 3.10017 14.6668H13.8335C14.9668 14.6668 15.8335 13.7334 15.8335 12.6668C15.9002 12.2668 15.7668 11.9334 15.6335 11.6668ZM8.50017 12.0001C8.10017 12.0001 7.8335 11.7334 7.8335 11.3334C7.8335 10.9334 8.10017 10.6668 8.50017 10.6668C8.90017 10.6668 9.16684 10.9334 9.16684 11.3334C9.16684 11.7334 8.90017 12.0001 8.50017 12.0001ZM9.16684 8.66678C9.16684 9.06678 8.90017 9.33345 8.50017 9.33345C8.10017 9.33345 7.8335 9.06678 7.8335 8.66678V6.00011C7.8335 5.60011 8.10017 5.33345 8.50017 5.33345C8.90017 5.33345 9.16684 5.60011 9.16684 6.00011V8.66678Z" fill="#E32A12"/>
</svg>
